HIERARCHY
ROOT hip
{
  OFFSET 0 0 0
  CHANNELS 6 Xposition Yposition Zposition Zrotation Yrotation Xrotation
  JOINT abdomen
  {
    OFFSET 0 20.6881 -0.73152
    CHANNELS 3 Zrotation Xrotation Yrotation
    JOINT chest
    {
      OFFSET 0 11.7043 -0.48768
      CHANNELS 3 Zrotation Xrotation Yrotation
      JOINT neck
      {
        OFFSET 0 22.1894 -2.19456
        CHANNELS 3 Zrotation Xrotation Yrotation
        JOINT head
        {
          OFFSET -0.24384 7.07133 1.2192
          CHANNELS 3 Zrotation Xrotation Yrotation
          JOINT leftEye
          {
            OFFSET 4.14528 8.04674 8.04672
            CHANNELS 3 Zrotation Xrotation Yrotation
            End Site
            {
              OFFSET 1 0 0
            }
          }
          JOINT rightEye
          {
            OFFSET -3.6576 8.04674 8.04672
            CHANNELS 3 Zrotation Xrotation Yrotation
            End Site
            {
              OFFSET 1 0 0
            }
          }
        }
      }
      JOINT rCollar
      {
        OFFSET -2.68224 19.2634 -4.8768
        CHANNELS 3 Zrotation Xrotation Yrotation
        JOINT rShldr
        {
          OFFSET -8.77824 -1.95073 1.46304
          CHANNELS 3 Zrotation Xrotation Yrotation
          JOINT rForeArm
          {
            OFFSET -28.1742 -1.7115 0.48768
            CHANNELS 3 Zrotation Xrotation Yrotation
            JOINT rHand
            {
              OFFSET -22.5879 0.773209 7.07136
              CHANNELS 3 Zrotation Xrotation Yrotation
              JOINT rThumb1
              {
                OFFSET -1.2192 -0.487915 3.41376
                CHANNELS 3 Zrotation Xrotation Yrotation
                JOINT rThumb2
                {
                  OFFSET -3.37035 -0.52449 3.41376
                  CHANNELS 3 Zrotation Xrotation Yrotation
                  End Site
                  {
                    OFFSET -1.78271 -1.18214 1.43049
                  }
                }
              }
              JOINT rIndex1
              {
                OFFSET -7.75947 0.938293 5.60832
                CHANNELS 3 Zrotation Xrotation Yrotation
                JOINT rIndex2
                {
                  OFFSET -2.54057 -0.884171 1.56538
                  CHANNELS 3 Zrotation Xrotation Yrotation
                  End Site
                  {
                    OFFSET -1.62519 -0.234802 1.16502
                  }
                }
              }
              JOINT rMid1
              {
                OFFSET -8.24714 1.18213 3.41376
                CHANNELS 3 Zrotation Xrotation Yrotation
                JOINT rMid2
                {
                  OFFSET -3.10165 -0.590103 1.0647
                  CHANNELS 3 Zrotation Xrotation Yrotation
                  End Site
                  {
                    OFFSET -2.48547 -0.328903 0.83742
                  }
                }
              }
              JOINT rRing1
              {
                OFFSET -8.82822 0.546677 1.51678
                CHANNELS 3 Zrotation Xrotation Yrotation
                JOINT rRing2
                {
                  OFFSET -2.60934 -0.819778 -0.0198488
                  CHANNELS 3 Zrotation Xrotation Yrotation
                  End Site
                  {
                    OFFSET -2.33842 -0.294052 0.168128
                  }
                }
              }
              JOINT rPinky1
              {
                OFFSET -8.27202 -0.0477905 -0.4584
                CHANNELS 3 Zrotation Xrotation Yrotation
                JOINT rPinky2
                {
                  OFFSET -1.82734 -0.647385 -0.700984
                  CHANNELS 3 Zrotation Xrotation Yrotation
                  End Site
                  {
                    OFFSET -1.69225 -0.51767 -0.607171
                  }
                }
              }
            }
          }
        }
      }
      JOINT lCollar
      {
        OFFSET 2.68224 19.2634 -4.8768
        CHANNELS 3 Zrotation Xrotation Yrotation
        JOINT lShldr
        {
          OFFSET 8.77824 -1.95073 1.46304
          CHANNELS 3 Zrotation Xrotation Yrotation
          JOINT lForeArm
          {
            OFFSET 28.1742 -1.7115 0.48768
            CHANNELS 3 Zrotation Xrotation Yrotation
            JOINT lHand
            {
              OFFSET 22.5879 0.773209 7.07136
              CHANNELS 3 Zrotation Xrotation Yrotation
              JOINT lThumb1
              {
                OFFSET 1.2192 -0.487915 3.41376
                CHANNELS 3 Zrotation Xrotation Yrotation
                JOINT lThumb2
                {
                  OFFSET 3.37035 -0.52449 3.41376
                  CHANNELS 3 Zrotation Xrotation Yrotation
                  End Site
                  {
                    OFFSET 1.78271 -1.18214 1.43049
                  }
                }
              }
              JOINT lIndex1
              {
                OFFSET 7.75947 0.938293 5.60832
                CHANNELS 3 Zrotation Xrotation Yrotation
                JOINT lIndex2
                {
                  OFFSET 2.54057 -0.884171 1.56538
                  CHANNELS 3 Zrotation Xrotation Yrotation
                  End Site
                  {
                    OFFSET 1.62519 -0.234802 1.16502
                  }
                }
              }
              JOINT lMid1
              {
                OFFSET 8.24714 1.18213 3.41376
                CHANNELS 3 Zrotation Xrotation Yrotation
                JOINT lMid2
                {
                  OFFSET 3.10165 -0.590103 1.0647
                  CHANNELS 3 Zrotation Xrotation Yrotation
                  End Site
                  {
                    OFFSET 2.48547 -0.328903 0.83742
                  }
                }
              }
              JOINT lRing1
              {
                OFFSET 8.82822 0.546677 1.51678
                CHANNELS 3 Zrotation Xrotation Yrotation
                JOINT lRing2
                {
                  OFFSET 2.60934 -0.819778 -0.0198488
                  CHANNELS 3 Zrotation Xrotation Yrotation
                  End Site
                  {
                    OFFSET 2.33842 -0.294052 0.168128
                  }
                }
              }
              JOINT lPinky1
              {
                OFFSET 8.27202 -0.0477905 -0.4584
                CHANNELS 3 Zrotation Xrotation Yrotation
                JOINT lPinky2
                {
                  OFFSET 1.82734 -0.647385 -0.700984
                  CHANNELS 3 Zrotation Xrotation Yrotation
                  End Site
                  {
                    OFFSET 1.69225 -0.51767 -0.607171
                  }
                }
              }
            }
          }
        }
      }
    }
  }
  JOINT rButtock
  {
    OFFSET -8.77824 4.35084 1.2192
    CHANNELS 3 Zrotation Xrotation Yrotation
    JOINT rThigh
    {
      OFFSET 0 -1.70687 -2.19456
      CHANNELS 3 Zrotation Xrotation Yrotation
      JOINT rShin
      {
        OFFSET 0 -36.8199 0.73152
        CHANNELS 3 Zrotation Xrotation Yrotation
        JOINT rFoot
        {
          OFFSET 0.73152 -45.1104 -5.12064
          CHANNELS 3 Zrotation Xrotation Yrotation
          End Site
          {
            OFFSET -1.1221 -3.69964 12.103
          }
        }
      }
    }
  }
  JOINT lButtock
  {
    OFFSET 8.77824 4.35084 1.2192
    CHANNELS 3 Zrotation Xrotation Yrotation
    JOINT lThigh
    {
      OFFSET 0 -1.70687 -2.19456
      CHANNELS 3 Zrotation Xrotation Yrotation
      JOINT lShin
      {
        OFFSET 0 -36.8199 0.73152
        CHANNELS 3 Zrotation Xrotation Yrotation
        JOINT lFoot
        {
          OFFSET -0.73152 -45.1104 -5.12064
          CHANNELS 3 Zrotation Xrotation Yrotation
          End Site
          {
            OFFSET 1.1221 -3.69964 12.103
          }
        }
      }
    }
  }
}
MOTION
Frames:	4
Frame Time:	0.03333
2.422966994345188 66.83475375175476 6.953787058591843 3.2200024127960205 14.861580848693848 5.9942193031311035 -11.777737617492676 8.357993125915527 -11.612983703613281 8.633978843688965 -6.938083648681641 -2.3642477989196777 -10.170328140258789 23.11371612548828 -20.859888076782227 19.45844268798828 -21.761674880981445 -37.20481491088867 -0.016565043479204178 -0.15686175227165222 -0.16879968345165253 -0.04478215426206589 -0.06016150489449501 0.08578815311193466 0.153714120388031 -0.083663210272789 -0.002772910287603736 66.6446762084961 35.68648147583008 -4.932589530944824 -16.610593795776367 -8.320716857910156 29.749126434326172 0.23710867762565613 -0.1542511135339737 -0.670951247215271 0.06217926740646362 0.11221936345100403 -0.060339316725730896 -0.029828649014234543 -0.22004830837249756 0.24631600081920624 -0.20626261830329895 0.04737772420048714 0.21769066154956818 7.676200866699219 5.449978351593018 0.4640139639377594 -0.04307950660586357 0.3251977562904358 -0.08304168283939362 3.0390539169311523 0.9251359701156616 0.27872613072395325 0.009476217441260815 -0.054731763899326324 0.009656070731580257 10.374320983886719 0.8816993236541748 -0.07267410308122635 -0.06717021018266678 -0.12070237845182419 -0.006433989852666855 2.1742424964904785 -0.9810069799423218 -0.17006024718284607 0.03426305577158928 0.047291357070207596 0.17382009327411652 -76.07357025146484 23.381088256835938 2.7193360328674316 12.393671035766602 -5.261151313781738 -24.3653621673584 0.7234053611755371 17.911582946777344 -2.7620978355407715 0.034157756716012955 0.1663370579481125 -0.020652011036872864 0.13405746221542358 -0.2100159227848053 -0.14231480658054352 -0.03157728537917137 0.1129247173666954 -0.1613864302635193 -7.791926383972168 5.596830368041992 -0.25121641159057617 0.05287922918796539 -0.12144555896520615 -0.15592944622039795 -3.1075479984283447 0.8894459009170532 0.11355749517679214 -0.17390412092208862 0.015011588111519814 -0.11968445032835007 -10.15445613861084 0.606791079044342 -0.15561144053936005 0.07907940447330475 -0.10900995880365372 0.17773137986660004 -2.1054625511169434 -1.0086389780044556 0.034949664026498795 -0.045365650206804276 -0.07215949892997742 0.011364921927452087 -43.219871520996094 -63.275794982910156 -35.92604064941406 -1.9954266548156738 70.65892028808594 1.7970088720321655 2.758655548095703 -5.984602451324463 16.755916595458984 -0.1930132508277893 -0.14050474762916565 -0.19527575373649597 1.4758062362670898 10.601852416992188 2.4962856769561768 -0.20943298935890198 31.356721878051758 -2.004427671432495 22.58846664428711 -21.820600509643555 40.575679779052734
2.3727774620056152 65.75374007225037 7.113171089440584 3.150423526763916 14.852806091308594 6.147861480712891 -11.047798156738281 8.251579284667969 -11.456365585327148 8.279840469360352 -7.112278938293457 -2.099575996398926 -9.889904022216797 22.795501708984375 -20.622474670410156 19.171916961669922 -21.725387573242188 -37.01790237426758 -0.030927199870347977 -0.16155429184436798 -0.14266332983970642 -0.009454277344048023 -0.07924874871969223 0.11425399035215378 0.11636190116405487 -0.08248893916606903 0.015101896598935127 65.25638580322266 35.996917724609375 -3.6344950199127197 -17.10274887084961 -8.601058959960938 30.417516708374023 0.2919764518737793 -0.1494000107049942 -0.8468369841575623 0.01721661165356636 0.07783520966768265 -0.08138445019721985 -0.05164916440844536 -0.2642615735530853 0.22616973519325256 -0.23380714654922485 0.012565304525196552 0.22358931601047516 7.695638656616211 5.4602437019348145 0.47016844153404236 -0.05661945790052414 0.2900638282299042 -0.07394210249185562 3.031768560409546 0.8712744116783142 0.280409574508667 -0.0054259710013866425 -0.13513751327991486 -0.019152401015162468 10.446279525756836 0.8988909721374512 -0.11136550456285477 -0.09552140533924103 -0.1362801343202591 -0.016897641122341156 2.183321237564087 -0.9297692775726318 -0.2012793868780136 0.07278932631015778 0.01366405002772808 0.10838725417852402 -74.76078033447266 22.012760162353516 2.4066781997680664 12.701465606689453 -5.479949474334717 -25.426998138427734 0.7020624279975891 16.918689727783203 -2.536489963531494 0.0199006125330925 0.15858913958072662 -0.0019334544194862247 0.059743329882621765 -0.17049625515937805 -0.013079286552965641 -0.10887832194566727 0.1608860343694687 -0.17903557419776917 -7.8130292892456055 5.581200122833252 -0.29071617126464844 0.01970028504729271 -0.17136667668819427 -0.15841148793697357 -3.085038423538208 0.9490487575531006 0.05452863872051239 -0.17930090427398682 -0.016175027936697006 -0.08252982050180435 -10.197059631347656 0.5853228569030762 -0.18125823140144348 0.1083177924156189 -0.11541823297739029 0.19503742456436157 -2.085688591003418 -1.0163823366165161 0.03728121891617775 -0.05889729782938957 -0.1067436933517456 -0.01545468159019947 -44.362457275390625 -63.108909606933594 -36.56463623046875 -2.2473177909851074 71.22346496582031 1.978330135345459 2.4916882514953613 -5.714845180511475 15.983000755310059 -0.1294672191143036 -0.07876333594322205 -0.23026247322559357 0.6248014569282532 9.184788703918457 2.4793574810028076 0.27214521169662476 32.175628662109375 -2.0031731128692627 22.338356018066406 -21.196231842041016 40.385101318359375
2.3690410889685154 66.3514256477356 7.30480533093214 3.2654812335968018 14.556471824645996 6.328497409820557 -11.050267219543457 8.836410522460938 -11.490946769714355 8.219039916992188 -7.114508152008057 -1.7835381031036377 -10.069430351257324 22.304140090942383 -20.381675720214844 19.100154876708984 -22.054460525512695 -37.87210464477539 -0.06606457382440567 -0.17836062610149384 -0.11631167680025101 -0.006136378739029169 -0.08003761619329453 0.08699308335781097 0.128851056098938 -0.13867361843585968 0.021566886454820633 64.64864349365234 36.09407424926758 -3.7092092037200928 -17.009002685546875 -8.504291534423828 30.0671443939209 0.2502339482307434 0.162493497133255 -0.8215619921684265 -0.010880358517169952 0.07830869406461716 -0.13313211500644684 -0.045530371367931366 -0.25536441802978516 0.222878098487854 -0.18750955164432526 -0.02916013076901436 0.2175591140985489 7.757957458496094 5.455892562866211 0.4483392834663391 -0.030196135863661766 0.24082456529140472 -0.07625383883714676 3.0430800914764404 0.8548049330711365 0.31353405117988586 -0.0024800184182822704 -0.1431332528591156 -0.014959256164729595 10.397115707397461 0.861771821975708 -0.1041283831000328 -0.06600534915924072 -0.12426701933145523 0.019212910905480385 2.1471824645996094 -0.8952614665031433 -0.16421489417552948 0.06023441627621651 0.01519191637635231 0.11684522032737732 -74.86790466308594 21.471853256225586 2.1246297359466553 12.398188591003418 -5.237148284912109 -25.433549880981445 0.7807881236076355 16.408611297607422 -2.5294551849365234 0.04712377116084099 0.2243574559688568 0.02720821276307106 0.03615414351224899 -0.15012851357460022 -0.024242570623755455 -0.11459150165319443 0.1323864609003067 -0.11882154643535614 -7.80539083480835 5.587977886199951 -0.28701475262641907 0.06772453337907791 -0.12235811352729797 -0.13206790387630463 -3.132946729660034 0.9126815795898438 0.022880302742123604 -0.17684943974018097 0.013236487284302711 -0.07321231812238693 -10.211392402648926 0.6242175698280334 -0.14776340126991272 0.0629817321896553 -0.12457519769668579 0.1598394513130188 -2.125938892364502 -0.9894531965255737 0.0520767942070961 -0.08517000824213028 -0.09369118511676788 -0.007072441279888153 -45.8200798034668 -63.731483459472656 -37.952720642089844 -1.418920874595642 71.48107147216797 1.3644633293151855 2.5639491081237793 -5.473643779754639 16.743928909301758 -0.2062286138534546 -0.1102759912610054 -0.21984560787677765 0.0476653091609478 8.635967254638672 2.932617425918579 0.571704626083374 32.18277359008789 -2.0465898513793945 22.72828483581543 -21.20574188232422 40.95622253417969
2.4125974625349045 67.12939143180847 7.509313058108091 3.178391218185425 14.503551483154297 6.411605358123779 -11.646608352661133 9.147332191467285 -11.265490531921387 8.297881126403809 -7.169927597045898 -1.7466614246368408 -10.274713516235352 21.940317153930664 -20.340055465698242 19.06913185119629 -22.409582138061523 -38.17523956298828 -0.09193824976682663 -0.1816001981496811 -0.09461373090744019 -0.005889523308724165 -0.04562096297740936 0.07561630010604858 0.13074758648872375 -0.14348120987415314 0.06281913816928864 64.3854751586914 35.666847229003906 -3.677473545074463 -17.0688533782959 -8.54349422454834 30.17391014099121 0.20684872567653656 0.5894833207130432 -0.5340754985809326 -0.005257833283394575 0.08878990262746811 -0.12382607161998749 0.00635830732062459 -0.23675604164600372 0.18934859335422516 -0.1510259509086609 -0.03403092175722122 0.19006505608558655 7.754134654998779 5.4269256591796875 0.4605098068714142 -0.026060817763209343 0.2396198958158493 -0.0869993269443512 3.0585691928863525 0.8504884243011475 0.313133180141449 0.023493824526667595 -0.07228464633226395 -0.05642575025558472 10.339644432067871 0.8719372153282166 -0.07564876973628998 -0.054405853152275085 -0.0823899358510971 0.0189143568277359 2.164943218231201 -0.8807247281074524 -0.11206724494695663 0.07586047798395157 0.007490918040275574 0.056192900985479355 -75.60565185546875 23.463504791259766 1.5803264379501343 12.724013328552246 -5.335677623748779 -25.764223098754883 0.727759063243866 14.91569995880127 -2.1596102714538574 0.06883283704519272 0.26785510778427124 0.017245037481188774 0.08169824630022049 -0.16093263030052185 -0.059256479144096375 -0.06983444839715958 0.10127423703670502 -0.08952037245035172 -7.7926154136657715 5.592833042144775 -0.2556821405887604 0.0862283855676651 -0.11890251934528351 -0.13057027757167816 -3.2053475379943848 0.8844340443611145 0.03152042254805565 -0.12047812342643738 0.04005477949976921 -0.08724499493837357 -10.26782512664795 0.6417591571807861 -0.09492725878953934 0.0009131625993177295 -0.1365717351436615 0.19084268808364868 -2.135761022567749 -0.9564344882965088 0.059235114604234695 -0.08504888415336609 -0.08548778295516968 0.005118437577039003 -46.10612487792969 -64.17044067382812 -38.59990692138672 -1.5209578275680542 71.72172546386719 1.4582240581512451 2.826824188232422 -5.576423168182373 17.26447296142578 -0.21072286367416382 -0.07242809236049652 -0.2392885535955429 1.1570765972137451 8.504140853881836 3.286567449569702 0.5192171335220337 32.38225555419922 -2.2157068252563477 22.438631057739258 -21.850406646728516 41.30833053588867
